<?xml version="1.0" encoding="UTF-8"?>
<svg id="Layer_1" data-name="Layer 1" xmlns="http://www.w3.org/2000/svg" viewBox="0 0 216 216">
  <defs>
    <style>
      .cls-1 {
        fill: #231f20;
      }
    </style>
  </defs>
  <g id="Light1">
    <path class="cls-1" d="M101.03,108.47c-2.23,12.64-10.5,22.72-21.31,27.8-.7.33-1.4.64-2.12.92h0c-1.38.56-2.79,1.03-4.24,1.41h0c-.69.19-1.39.36-2.11.5-4.56.94-9.38,1.06-14.24.2-7.18-1.27-13.54-4.48-18.62-9.01-.46-.41-.9-.82-1.33-1.25-1.15-1.12-2.22-2.31-3.22-3.57-.4-.5-.79-1.01-1.16-1.54-5.71-8.01-8.33-18.21-6.49-28.64s7.46-18.64,15.23-24.22c.58-.42,1.17-.82,1.78-1.21,1.25-.8,2.54-1.52,3.89-2.17.7-.34,1.41-.66,2.12-.96,6.43-2.64,13.67-3.56,21.01-2.27,10.44,1.84,19.13,7.79,24.69,15.9-1.47.22-2.93.48-4.38.77-4.99-6.48-12.32-11.2-21.01-12.73-5.75-1.01-11.43-.51-16.63,1.23h0c-.73.24-1.46.51-2.17.81h0c-1.37.56-2.69,1.22-3.97,1.95-.62.35-1.23.73-1.82,1.12-7.53,4.97-13.09,12.89-14.78,22.47-1.53,8.68.4,17.18,4.78,24.1.35.54.71,1.07,1.08,1.6.93,1.29,1.95,2.53,3.06,3.69.42.44.84.86,1.29,1.27,4.66,4.41,10.61,7.54,17.38,8.73,4.85.85,9.64.63,14.12-.5.7-.17,1.38-.37,2.06-.59,1.42-.45,2.79-.99,4.13-1.62.71-.33,1.4-.69,2.08-1.07,8.65-4.81,15.15-13.33,16.99-23.81,1.19-6.78.29-13.43-2.25-19.31,1.35-.23,2.71-.42,4.09-.57,2.52,6.32,3.36,13.4,2.1,20.58Z"/>
    <path class="cls-1" d="M117.4,86.32c-1.44-.18-2.88-.33-4.31-.44-.72-.06-1.43-.1-2.16-.13-3.58-.16-7.12-.08-10.62.24-.7.06-1.4.14-2.09.22-1.39.16-2.77.37-4.14.6-.68.11-1.36.25-2.05.38-6.95,1.38-13.62,3.71-19.86,6.85-.6.29-1.19.6-1.78.93.26.52.52,1.05.76,1.58,4.88,10.34,7.39,21.89,6.99,33.83-1.32.67-2.68,1.25-4.08,1.74.72-11.85-1.61-23.32-6.39-33.58-.25-.53-.5-1.06-.77-1.59-.58.33-1.15.69-1.71,1.06-10.12,6.43-18.76,15.14-25.1,25.56-1.08-1.18-2.07-2.43-2.98-3.74,6.67-10.49,15.59-19.27,25.95-25.81.57-.35,1.13-.69,1.71-1.04-.28-.51-.58-1.01-.89-1.51-4.11-6.72-9.33-12.72-15.46-17.74,1.3-.69,2.65-1.31,4.04-1.83,5.87,5.07,10.89,11.02,14.9,17.6.31.5.61,1,.89,1.51.59-.32,1.19-.63,1.79-.92,6.14-3.1,12.69-5.45,19.49-6.95.71-.16,1.42-.31,2.13-.45,1.42-.28,2.85-.52,4.3-.71.72-.11,1.45-.19,2.17-.27,3.61-.42,7.27-.59,10.98-.51.74.02,1.49.04,2.23.08,1.49.07,2.98.18,4.47.33.6,1.55,1.13,3.12,1.59,4.72Z"/>
    <path class="cls-1" d="M77.06,140.8c-.6,3.38-1.42,6.66-2.45,9.84-.23.75-.48,1.49-.75,2.21-.53,1.48-1.1,2.93-1.71,4.36-1.52.24-3.07.41-4.62.52-.75.06-1.51.1-2.27.12-3.74.11-7.55-.15-11.37-.83-8.05-1.42-15.38-4.5-21.74-8.82-.52-.37-1.04-.73-1.55-1.11-1.34-.98-2.64-2.02-3.89-3.11-.49-.44-.97-.88-1.45-1.33-13.26-12.51-20.19-31.25-16.8-50.5,2.03-11.51,7.46-21.59,15.09-29.38.52-.55,1.07-1.08,1.62-1.6,1.13-1.06,2.31-2.08,3.52-3.04,1.48.52,2.95,1.08,4.37,1.69.72.31,1.42.62,2.13.94,3.51,1.62,6.86,3.5,10.02,5.62-1.32.68-2.6,1.44-3.83,2.27h0c-3.1-1.95-6.37-3.67-9.8-5.12h0c-.69-.31-1.38-.58-2.08-.86-.56.49-1.12.99-1.67,1.5-7.81,7.41-13.4,17.27-15.41,28.67-3.02,17.16,2.77,33.86,14.12,45.45.46.47.92.92,1.4,1.37,1.19,1.13,2.43,2.21,3.74,3.22.49.39.99.77,1.51,1.14,6.17,4.47,13.42,7.65,21.41,9.06,4.22.74,8.42.96,12.51.67.75-.04,1.5-.11,2.24-.2.27-.69.54-1.39.78-2.1,1.24-3.44,2.2-7,2.88-10.7,1.45-.35,2.89-.78,4.29-1.29-.07.44-.15.9-.23,1.34Z"/>
    <g>
      <path class="cls-1" d="M118.14,108.09c-1.13,0-2.16-.19-3.1-.58s-1.76-.93-2.44-1.63c-.68-.7-1.21-1.53-1.59-2.48s-.57-2.01-.57-3.15.19-2.18.56-3.12c.37-.94.89-1.76,1.56-2.45.67-.69,1.46-1.22,2.37-1.6.91-.38,1.9-.56,2.96-.56,1,0,1.86.17,2.57.51.71.34,1.28.84,1.71,1.49.42.66.7,1.46.83,2.4h.67l-.58,1.81c-.27-1.15-.85-2.06-1.73-2.75-.88-.68-1.95-1.02-3.21-1.02-.99,0-1.87.22-2.63.67-.76.45-1.35,1.07-1.78,1.87-.43.8-.64,1.72-.64,2.77,0,.79.12,1.52.36,2.18.24.66.59,1.23,1.04,1.71s.98.85,1.59,1.12c.62.26,1.3.4,2.04.4.84,0,1.6-.17,2.28-.5s1.24-.79,1.69-1.39c.45-.6.76-1.3.92-2.1l2.59.49c-.24,1.19-.7,2.23-1.39,3.12-.69.89-1.55,1.58-2.58,2.07-1.04.49-2.21.74-3.51.74ZM123.09,98.72v-5.98h2.52v5.98h-2.52Z"/>
      <path class="cls-1" d="M132.64,105.79h1.79v2.05h-6.12v-2.05h1.89v-6.76h-1.89v-2.05h4.33v8.81ZM136.47,99.47c-.13-.03-.27-.06-.42-.08s-.3-.03-.45-.03c-.91,0-1.63.3-2.17.9s-.79,1.43-.79,2.5l-.47-2.53h.56c.09-.76.26-1.39.53-1.9s.62-.88,1.05-1.14c.44-.25.95-.38,1.54-.38.11,0,.21,0,.31.02.1,0,.2.02.31.04v2.59Z"/>
      <path class="cls-1" d="M144.45,108.05c-1.16,0-2.18-.24-3.05-.71-.87-.48-1.55-1.14-2.04-1.98-.49-.84-.73-1.81-.73-2.91s.24-2.1.73-2.95c.49-.85,1.17-1.52,2.03-2.01.87-.48,1.89-.72,3.06-.72s2.19.24,3.06.72c.87.48,1.55,1.15,2.04,2.01s.73,1.84.73,2.95-.24,2.07-.73,2.91-1.17,1.5-2.04,1.98-1.89.71-3.06.71ZM144.45,105.86c.65,0,1.22-.14,1.71-.42.5-.28.88-.68,1.16-1.19.28-.51.42-1.11.42-1.79s-.14-1.3-.42-1.82c-.28-.52-.66-.93-1.16-1.22-.5-.29-1.07-.44-1.71-.44s-1.22.15-1.71.44c-.49.29-.88.7-1.16,1.22s-.42,1.13-.42,1.82.14,1.29.42,1.79c.28.51.67.91,1.16,1.19.49.28,1.06.42,1.71.42Z"/>
      <path class="cls-1" d="M153.26,107.84v-3.45h2.44v3.45h-2.44ZM159.07,108.04c-.67,0-1.23-.1-1.69-.29s-.82-.47-1.09-.82c-.27-.35-.44-.77-.51-1.25h-.46l.38-1.29c.11.51.41.93.91,1.26s1.11.49,1.84.49c.59,0,1.04-.11,1.34-.33.3-.22.45-.55.45-.98s-.17-.73-.51-.96c-.34-.22-.96-.4-1.86-.52-1.64-.23-2.81-.65-3.52-1.24-.71-.59-1.07-1.36-1.07-2.29s.3-1.64.92-2.2,1.47-.83,2.58-.83c.63,0,1.15.1,1.56.29.41.19.73.46.96.82.23.36.37.78.43,1.27h.46l-.36,1.24c-.11-.51-.39-.93-.85-1.26-.46-.33-1.02-.49-1.66-.49-.52,0-.91.11-1.18.32-.27.21-.4.48-.4.8,0,.39.21.7.63.92.42.22,1.08.4,1.98.54,1.57.23,2.68.63,3.35,1.21s1,1.36,1,2.36-.3,1.81-.91,2.38c-.61.57-1.51.86-2.71.86ZM159.82,100.4v-3.43h2.44v3.43h-2.44Z"/>
      <path class="cls-1" d="M165.7,107.84v-3.45h2.44v3.45h-2.44ZM171.5,108.04c-.67,0-1.23-.1-1.69-.29s-.82-.47-1.09-.82c-.27-.35-.44-.77-.51-1.25h-.46l.38-1.29c.11.51.41.93.91,1.26s1.11.49,1.84.49c.59,0,1.04-.11,1.34-.33.3-.22.45-.55.45-.98s-.17-.73-.51-.96c-.34-.22-.96-.4-1.86-.52-1.64-.23-2.81-.65-3.52-1.24-.71-.59-1.07-1.36-1.07-2.29s.3-1.64.92-2.2,1.47-.83,2.58-.83c.63,0,1.15.1,1.56.29.41.19.73.46.96.82.23.36.37.78.43,1.27h.46l-.36,1.24c-.11-.51-.39-.93-.85-1.26-.46-.33-1.02-.49-1.66-.49-.52,0-.91.11-1.18.32-.27.21-.4.48-.4.8,0,.39.21.7.63.92.42.22,1.08.4,1.98.54,1.57.23,2.68.63,3.35,1.21s1,1.36,1,2.36-.3,1.81-.91,2.38c-.61.57-1.51.86-2.71.86ZM172.25,100.4v-3.43h2.44v3.43h-2.44Z"/>
      <path class="cls-1" d="M118.14,132.09c-1.13,0-2.16-.19-3.1-.58s-1.76-.93-2.44-1.63c-.68-.7-1.21-1.53-1.59-2.48-.38-.96-.57-2.01-.57-3.15s.19-2.18.56-3.12c.37-.94.89-1.76,1.56-2.45.67-.69,1.46-1.22,2.37-1.6s1.9-.57,2.96-.57c1,0,1.86.17,2.57.51.71.34,1.28.84,1.71,1.49.42.66.7,1.46.83,2.4h.67l-.58,1.81c-.27-1.15-.85-2.06-1.73-2.75-.88-.68-1.95-1.02-3.21-1.02-.99,0-1.87.22-2.63.67-.76.45-1.35,1.07-1.78,1.87s-.64,1.72-.64,2.76c0,.79.12,1.52.36,2.18.24.66.59,1.23,1.04,1.71.45.48.98.85,1.59,1.12.62.26,1.3.4,2.04.4.84,0,1.6-.17,2.28-.5s1.24-.79,1.69-1.39c.45-.6.76-1.3.92-2.1l2.59.49c-.24,1.19-.7,2.23-1.39,3.12-.69.89-1.55,1.58-2.58,2.07-1.04.49-2.21.74-3.51.74ZM123.09,122.72v-5.98h2.52v5.98h-2.52Z"/>
      <path class="cls-1" d="M134.09,132.05c-1.16,0-2.18-.24-3.05-.71-.87-.48-1.55-1.13-2.04-1.97-.49-.84-.73-1.81-.73-2.91s.24-2.1.73-2.95c.49-.85,1.17-1.52,2.03-2,.87-.48,1.89-.72,3.06-.72s2.19.24,3.06.72,1.55,1.15,2.04,2,.73,1.84.73,2.95-.24,2.07-.73,2.91-1.17,1.5-2.04,1.97-1.89.71-3.06.71ZM134.09,129.86c.65,0,1.22-.14,1.71-.42.5-.28.88-.68,1.16-1.19.28-.51.42-1.11.42-1.79s-.14-1.3-.42-1.83c-.28-.52-.66-.93-1.16-1.22-.5-.29-1.07-.44-1.71-.44s-1.22.15-1.71.44c-.49.29-.88.7-1.16,1.22s-.42,1.13-.42,1.83.14,1.29.42,1.79.67.91,1.16,1.19c.49.28,1.06.42,1.71.42Z"/>
      <path class="cls-1" d="M146.29,120.98v6.79c0,.69.16,1.24.49,1.65.32.41.81.61,1.46.61.52,0,1-.14,1.42-.42s.77-.7,1.02-1.24.38-1.2.38-1.97l.47,2.25h-.56c-.17,1.15-.58,2.01-1.23,2.58-.66.58-1.49.86-2.5.86-1.13,0-1.97-.33-2.54-1s-.84-1.6-.84-2.78v-5.28h-1.64v-2.05h4.08ZM151.06,123.03h-1.8v-2.05h4.24v8.81h1.76v2.05h-4.2v-8.81Z"/>
      <path class="cls-1" d="M161.92,129.79h1.57v2.05h-5.9v-2.05h1.89v-6.76h-1.89v-2.05h4.33v8.81ZM166.78,129.79v-4.72c0-.7-.16-1.25-.49-1.66-.33-.41-.82-.61-1.48-.61-.55,0-1.05.15-1.48.44s-.78.71-1.03,1.25c-.25.54-.38,1.19-.38,1.94l-.47-2.21h.56c.11-.77.34-1.4.67-1.91.34-.51.77-.89,1.29-1.14s1.12-.38,1.81-.38c1.11,0,1.96.33,2.55.99s.88,1.6.88,2.83v5.2h1.76v2.05h-5.74v-2.05h1.54Z"/>
      <path class="cls-1" d="M176.89,128.64c0,.41.07.71.21.91.14.2.35.29.63.29s.5-.1.66-.3c.15-.2.22-.5.22-.9v-1.05h2.12v1.03c0,.72-.11,1.33-.33,1.84s-.55.9-1.01,1.17c-.46.27-1.05.41-1.78.41s-1.33-.14-1.8-.42-.82-.67-1.04-1.18-.33-1.11-.33-1.81v-5.61h-1.76v-2.05h1.76v-2.78h2.44v2.78h3.7l-.02,2.05h-3.68v5.61Z"/>
      <path class="cls-1" d="M187.68,129.79h1.79v2.05h-6.12v-2.05h1.89v-6.76h-1.89v-2.05h4.33v8.81ZM191.51,123.47c-.13-.03-.27-.06-.42-.08-.15-.02-.3-.03-.45-.03-.91,0-1.63.3-2.17.89s-.79,1.43-.79,2.5l-.47-2.53h.56c.09-.76.26-1.39.53-1.9.27-.5.62-.88,1.05-1.13s.95-.38,1.54-.38c.11,0,.21,0,.31.01.1,0,.2.03.31.04v2.59Z"/>
      <path class="cls-1" d="M200.31,120.98h5.16v2.05h-1.04l-4.05,9.96c-.42,1.01-1.05,1.77-1.89,2.29-.84.51-1.87.76-3.09.76h-1.45v-2.07h1.45c.65,0,1.22-.13,1.73-.39s.86-.64,1.07-1.15l.94-1.63-.76,1.81-3.98-9.58h-1.19v-2.05h5.45v2.05h-1.59l3.2,8.09-1.91-1.7h2l-1.16,1.16,2.89-7.55h-1.78v-2.05Z"/>
      <path class="cls-1" d="M118.14,156.09c-1.13,0-2.16-.19-3.1-.58s-1.76-.93-2.44-1.63c-.68-.7-1.21-1.53-1.59-2.48-.38-.96-.57-2.01-.57-3.15s.19-2.18.56-3.12c.37-.94.89-1.76,1.56-2.45.67-.69,1.46-1.22,2.37-1.6s1.9-.57,2.96-.57c1,0,1.86.17,2.57.51.71.34,1.28.84,1.71,1.49.42.66.7,1.46.83,2.4h.67l-.58,1.81c-.27-1.15-.85-2.06-1.73-2.75-.88-.68-1.95-1.02-3.21-1.02-.99,0-1.87.22-2.63.67-.76.45-1.35,1.07-1.78,1.87s-.64,1.72-.64,2.76c0,.79.12,1.52.36,2.18.24.66.59,1.23,1.04,1.71.45.48.98.85,1.59,1.12.62.26,1.3.4,2.04.4.84,0,1.6-.17,2.28-.5s1.24-.79,1.69-1.39c.45-.6.76-1.3.92-2.1l2.59.49c-.24,1.19-.7,2.23-1.39,3.12-.69.89-1.55,1.58-2.58,2.07-1.04.49-2.21.74-3.51.74ZM123.09,146.72v-5.98h2.52v5.98h-2.52Z"/>
      <path class="cls-1" d="M131.78,144.98v6.79c0,.69.16,1.24.49,1.65.32.41.81.61,1.46.61.52,0,1-.14,1.42-.42s.77-.7,1.02-1.24.38-1.2.38-1.97l.47,2.25h-.56c-.17,1.15-.58,2.01-1.23,2.58-.66.58-1.49.86-2.5.86-1.13,0-1.97-.33-2.54-1s-.84-1.6-.84-2.78v-5.28h-1.64v-2.05h4.08ZM136.54,147.03h-1.8v-2.05h4.24v8.81h1.76v2.05h-4.2v-8.81Z"/>
      <path class="cls-1" d="M147.5,153.79h1.77v2.05h-6.1v-2.05h1.89v-6.76h-1.89v-2.05h4.33v8.81ZM144.78,140.21h2.83v2.66h-2.83v-2.66Z"/>
      <path class="cls-1" d="M151.8,155.84v-3.45h2.44v3.45h-2.44ZM157.61,156.04c-.67,0-1.23-.1-1.69-.29s-.82-.47-1.09-.82c-.27-.35-.44-.77-.51-1.25h-.46l.38-1.29c.11.51.41.93.91,1.26.5.33,1.11.49,1.84.49.59,0,1.04-.11,1.34-.33.3-.22.45-.55.45-.98s-.17-.73-.51-.96-.96-.4-1.86-.53c-1.64-.23-2.81-.65-3.52-1.24-.71-.59-1.07-1.36-1.07-2.29s.3-1.64.92-2.2,1.47-.83,2.58-.83c.63,0,1.15.09,1.56.29.41.19.73.46.96.82.23.36.37.78.43,1.28h.46l-.36,1.24c-.11-.51-.39-.93-.85-1.26-.46-.33-1.02-.49-1.66-.49-.52,0-.91.11-1.18.32-.27.21-.4.48-.4.8,0,.39.21.7.63.92.42.22,1.08.4,1.98.54,1.57.23,2.68.63,3.35,1.21.67.58,1,1.36,1,2.36s-.3,1.81-.91,2.38-1.51.86-2.71.86ZM158.36,148.4v-3.43h2.44v3.43h-2.44Z"/>
      <path class="cls-1" d="M168.47,153.79h1.77v2.05h-6.1v-2.05h1.89v-6.76h-1.89v-2.05h4.33v8.81ZM165.75,140.21h2.83v2.66h-2.83v-2.66Z"/>
      <path class="cls-1" d="M176.92,153.79h1.57v2.05h-5.9v-2.05h1.89v-6.76h-1.89v-2.05h4.33v8.81ZM181.78,153.79v-4.72c0-.7-.16-1.25-.49-1.66-.33-.41-.82-.61-1.48-.61-.55,0-1.05.15-1.48.44s-.78.71-1.03,1.25c-.25.54-.38,1.19-.38,1.94l-.47-2.21h.56c.11-.77.34-1.4.67-1.91.34-.51.77-.89,1.29-1.14s1.12-.38,1.81-.38c1.11,0,1.96.33,2.55.99s.88,1.6.88,2.83v5.2h1.76v2.05h-5.74v-2.05h1.54Z"/>
      <path class="cls-1" d="M193.94,156.05c-1.17,0-2.18-.24-3.04-.71-.85-.48-1.5-1.13-1.96-1.97s-.69-1.81-.69-2.91.23-2.1.69-2.95c.46-.85,1.11-1.52,1.95-2,.84-.48,1.82-.72,2.95-.72s2.12.24,2.94.72c.82.48,1.45,1.15,1.9,2s.67,1.84.67,2.96c0,.19,0,.34,0,.46,0,.12-.01.21-.03.29h-2.41c.01-.13.02-.26.03-.4,0-.14,0-.3,0-.49,0-.67-.12-1.26-.36-1.77-.24-.51-.59-.92-1.05-1.21-.46-.29-1.02-.44-1.67-.44-.62,0-1.17.15-1.63.45s-.83.71-1.09,1.25c-.26.54-.39,1.16-.39,1.87,0,.67.13,1.26.38,1.77.26.51.62.92,1.1,1.21s1.05.44,1.71.44,1.28-.16,1.77-.48c.49-.32.86-.74,1.09-1.27l2.34.77c-.4.98-1.06,1.75-1.97,2.32-.91.57-1.99.85-3.23.85ZM189.8,151.2v-1.71h8.39l.47,1.71h-8.86Z"/>
    </g>
  </g>
</svg>